<svg width="75" height="88" viewBox="0 0 75 88" fill="none" xmlns="http://www.w3.org/2000/svg">
<path d="M75 84.374C75 86.0928 73.5938 87.499 71.875 87.499H3.125C1.4062 87.499 0 86.0928 0 84.374C0 75.0928 4.0625 66.749 10.531 60.999C17.531 67.749 27.062 71.874 37.5 71.874C47.938 71.874 57.469 67.749 64.469 60.999C70.9378 66.749 75 75.093 75 84.374ZM50.094 32.812C50.094 39.7495 44.4378 45.406 37.5 45.406C30.5622 45.406 24.906 39.7498 24.906 32.812C24.906 25.8742 30.5622 20.218 37.5 20.218C44.4378 20.218 50.094 25.8742 50.094 32.812ZM42.7502 32.812C42.7502 29.9058 40.4064 27.562 37.5002 27.562C34.594 27.562 32.2502 29.9058 32.2502 32.812C32.2502 35.7182 34.594 38.062 37.5002 38.062C40.4064 38.062 42.7502 35.7182 42.7502 32.812ZM70.3122 32.812C70.3122 50.906 55.5932 65.624 37.5002 65.624C19.4072 65.624 4.6882 50.905 4.6882 32.812C4.6882 14.719 19.4072 0 37.5002 0C55.5932 0 70.3122 14.719 70.3122 32.812ZM56.3432 32.812C56.3432 22.437 47.8744 13.968 37.4992 13.968C27.124 13.968 18.6552 22.4368 18.6552 32.812C18.6552 43.1872 27.124 51.656 37.4992 51.656C47.8744 51.656 56.3432 43.1872 56.3432 32.812Z" fill="white"/>
</svg>
