<svg width="90" height="152" viewBox="0 0 90 152" fill="none" xmlns="http://www.w3.org/2000/svg">
<path d="M89.1115 93.9887C88.3328 93.7735 88.3003 93.5064 87.8635 92.9994H87.6139V92.5046L87.1146 92.01C86.3409 91.4535 85.0928 91.3718 84.1194 91.0206C84.2016 90.3603 84.2866 89.7023 84.3689 89.042C84.354 88.9727 84.037 88.9677 84.1194 88.5473H84.3689V85.0845C84.2442 84.674 83.6924 83.5214 83.8697 82.8584H84.1194V81.1271H84.3689V79.8903H84.6185V78.159H84.8681V77.6643H85.1178L84.8681 77.417C84.9505 77.1697 85.0354 76.9223 85.1178 76.675H84.8681V76.4277H85.1178C85.4921 74.5998 85.1452 69.9968 84.8681 68.5128C84.9505 68.1839 85.0354 67.8524 85.1178 67.5235H84.8681C84.7858 66.3683 84.7009 65.2159 84.6185 64.0607H84.3689V63.3187H84.1194C84.2016 63.0714 84.2866 62.824 84.3689 62.5767H84.1194C84.037 61.9162 83.952 61.2584 83.8697 60.5979H83.6201V58.3719H83.3705V51.4464C83.3705 48.9285 83.5202 46.4725 82.8712 44.521H82.6217C82.5393 43.2027 82.4543 41.8818 82.372 40.5636C82.372 40.5561 82.7514 40.3657 82.6217 39.8216H82.372V34.6275H82.1224V32.896H81.8728C81.7055 31.9883 81.5409 31.0831 81.3735 30.1754H81.124V29.1859H80.8744V28.6913H80.6247V26.9599H80.3751C80.2927 26.2179 80.2079 25.4759 80.1255 24.7338H79.876V23.7445H79.6263V23.0025H79.3767V22.0132H79.1271V21.5185H78.8774V20.5292H78.6278V20.0344H78.3783V19.0451H78.1286C77.9614 18.5504 77.7966 18.0557 77.6294 17.5611H77.3798V16.8191H77.1301C77.0477 16.4901 76.9629 16.1587 76.8806 15.8296H76.631V15.3351H76.3813V14.593C76.2141 14.5113 76.0493 14.4273 75.8821 14.3456V13.851L75.3828 13.3563V12.8616H75.1333V12.367C74.966 12.2853 74.8013 12.2013 74.634 12.1196C74.5516 11.7907 74.4668 11.4593 74.3844 11.1302C74.1349 10.9645 73.8851 10.8012 73.6356 10.6355V10.1409C73.4684 10.0592 73.3036 9.97523 73.1364 9.89351V9.39892C72.47 8.98578 71.8059 8.57519 71.1394 8.16218C70.6602 7.68485 70.5205 6.54949 69.8915 6.18343C69.4746 6.10184 69.0602 6.01772 68.6433 5.93613C68.1442 5.35983 67.6449 4.78111 67.1456 4.2048H66.6465C66.5641 4.03909 66.4792 3.87579 66.3969 3.71008C65.3983 3.54437 64.3999 3.38107 63.4015 3.21536C63.3191 3.04965 63.2343 2.88648 63.1519 2.72077C62.9022 2.63905 62.6526 2.55506 62.4031 2.47334V2.22605H61.9038V1.97875H61.4046V1.73133H60.6558V1.48403H59.9069V1.23674C58.3793 0.70002 57.2835 1.48163 55.6635 0.989311V0.742017H54.4154V0.494722H53.6666V0.247295H52.6681V0H38.1906V0.247295C37.6915 0.329013 37.1922 0.413004 36.6929 0.494722V0.742017H36.1938V0.989311H34.1968C33.0312 1.15502 31.868 1.31832 30.7023 1.48403V1.73133C30.3703 1.81305 30.0358 1.89704 29.7038 1.97875V2.22605H28.955V2.47334C28.623 2.55506 28.2885 2.63905 27.9566 2.72077V2.96807H27.4573C27.375 3.13378 27.2901 3.29708 27.2077 3.46279H26.7086C26.4588 3.79167 26.2093 4.12309 25.9597 4.4521H25.4604C25.378 4.61781 25.2932 4.78111 25.2109 4.94682H24.462V5.19412H23.9627V5.44141H23.2139C23.1316 5.60712 23.0467 5.77042 22.9643 5.93613H22.2154V6.18343H21.7163V6.43085H21.217C20.9674 6.75973 20.7179 7.09115 20.4682 7.42017C20.1362 7.50175 19.8017 7.58588 19.4697 7.66746C18.4713 8.57519 17.4729 9.48051 16.4743 10.3882C16.3921 10.7172 16.3072 11.0487 16.2248 11.3775H15.9752C15.8928 11.625 15.8079 11.8723 15.7256 12.1196L15.2263 12.367V12.8616C14.5599 13.4379 13.896 14.0167 13.2295 14.593C13.1471 14.9219 13.0622 15.2533 12.9798 15.5823L12.4806 15.8296V16.3244H12.2309V16.8191H11.9814C11.2825 18.3946 11.8266 21.0659 11.2325 22.7552C11.4822 22.8368 11.7318 22.9209 11.9814 23.0025C12.2309 22.2605 12.4806 21.5185 12.7302 20.7765V20.5292H12.9798L13.2295 20.7765V21.0238H12.9798V22.2605H12.7302C12.563 23.7445 12.3983 25.2286 12.2309 26.7126H11.9814C11.899 27.2073 11.8142 27.7019 11.7318 28.1966H11.4822V28.6913H11.2325C11.0653 29.4334 10.9005 30.1754 10.7334 30.9174H10.4837V31.412H10.2341C10.0669 32.4014 9.90211 33.3907 9.73487 34.3801C9.96702 35.1296 11.0354 35.6613 10.7334 36.8535H10.4837V38.0901H10.2341C10.1517 38.4191 10.0669 38.7506 9.98449 39.0796L9.48526 39.3269V39.8216L8.98603 40.0689V40.5636C8.48681 40.9766 7.9876 41.3872 7.48837 41.8002V42.2949C7.23876 42.4606 6.98914 42.6238 6.73953 42.7897V43.2843L6.24031 43.5317V44.0263C5.99069 44.192 5.74108 44.3553 5.49147 44.521V45.0157C4.79256 45.9753 3.32234 46.4032 2.49613 47.2418C2.08427 47.6597 1.94199 48.3374 1.49768 48.7258V50.2098L1.9969 50.4571C2.37382 50.8727 2.71828 51.4464 3.24495 51.6939H3.99379V51.9412H4.49302V52.1884H5.24186V52.4359C6.17291 52.74 7.35607 52.1712 7.9876 52.6832C8.1698 52.933 8.32706 52.5917 8.23719 52.9305H7.9876V53.6725H7.73798V55.6512C7.57073 56.1682 6.82439 57.301 7.23876 58.3719H7.48837V58.8666C7.82034 59.0323 8.15483 59.1956 8.48681 59.3613C8.40445 60.1033 8.31957 60.8454 8.23719 61.5874H8.48681V62.082C9.23565 62.6583 9.98448 63.2371 10.7334 63.8134C10.4637 66.089 9.19322 66.4574 9.23565 69.2548C9.72738 69.6852 9.44532 69.8262 9.73487 70.2441C10.1517 70.5732 10.5661 70.9046 10.9829 71.2336V71.7282L11.4822 71.9756V72.4702L11.9814 72.7176V72.9649H12.4806V73.2122H12.9798C13.0622 73.378 13.1471 73.5412 13.2295 73.7069H13.9783V73.9542H14.9768C15.0592 74.1201 15.144 74.2832 15.2263 74.4489H15.7256V74.6962C16.0651 74.9213 16.1624 74.8793 16.724 74.9437C16.6616 75.5051 16.6915 75.5892 16.4743 75.933H16.2248V76.675H15.9752C16.0401 78.4138 16.3196 78.0675 17.2232 78.901L17.7225 79.1483V80.1378H17.972C18.0544 80.4667 18.1394 80.7981 18.2217 81.1271L18.7209 81.3744L18.4713 81.6218L18.7209 81.8691V82.1164H18.4713C18.5462 82.4578 18.6136 82.0299 18.7209 82.3638V83.3531C18.9705 83.5189 19.2202 83.6821 19.4697 83.8479V86.5685C19.7144 87.2907 20.1112 87.2907 20.2186 88.3C18.8732 88.2331 17.1035 87.6494 16.2248 88.5473C15.8928 88.7946 15.5583 89.042 15.2263 89.2893V90.0313H14.9768C15.1615 91.7503 16.0525 91.4288 16.724 92.5046C16.1424 93.1651 15.5583 93.823 14.9768 94.4834H14.4775L13.9783 94.9781H13.4791V95.2254H12.9798V95.4727H12.4806C11.899 95.8858 11.3149 96.2964 10.7334 96.7094V97.4515H10.9829V97.6987C11.4822 97.533 11.9814 97.3699 12.4806 97.2042V96.9567H13.2295V96.7094L13.7286 96.9567V96.7094C14.2279 96.6279 14.7271 96.5437 15.2263 96.4621C15.5782 96.4794 15.1264 96.7613 15.4759 96.7094V96.4621C15.8079 96.3804 16.1424 96.2964 16.4743 96.2147V95.9674C16.9212 95.6186 17.0684 95.3961 17.7225 95.2254C17.9346 95.5049 17.69 95.265 17.972 95.4727C17.8897 95.7201 17.8049 95.9674 17.7225 96.2147H17.4729C17.3905 96.6279 17.3056 97.0385 17.2232 97.4515H16.9736V98.1935H16.724C16.5567 98.9355 16.3921 99.6775 16.2248 100.42C16.3072 100.585 16.3921 100.749 16.4743 100.914H16.2248V101.656H15.9752C15.6107 102.804 16.2821 104.258 15.7256 105.119C15.3087 105.448 14.8944 105.779 14.4775 106.108V106.603C13.9783 107.016 13.4791 107.427 12.9798 107.84V108.334L12.4806 108.582V109.076C11.8191 110.051 10.7683 110.667 10.4837 112.044H9.98449C9.81725 112.539 9.6525 113.034 9.48526 113.529L8.98603 113.776C8.90367 114.105 8.8188 114.436 8.73642 114.765L8.23719 115.013V115.507L7.73798 116.002V116.497H7.48837V116.991H7.23876V117.486L6.73953 117.733V118.228L6.24031 118.723C6.15793 119.052 6.07307 119.383 5.99069 119.712C5.74108 119.878 5.49147 120.041 5.24186 120.207V120.948H4.99224V121.443H4.74263V121.938L4.2434 122.185V122.928H3.99379V123.422H3.74418C3.57694 123.917 3.4122 124.411 3.24495 124.906H2.99534V125.648L2.49613 125.895V126.638H2.24652V127.133H1.9969V127.873H1.74729C1.58004 128.368 1.4153 128.863 1.24806 129.358H0.998451V130.348H0.748838V130.843H0.499226V131.831H0.249613V132.573H0V141.973H0.249613V142.714L0.748838 142.961V143.704H0.998451V144.198H1.24806V144.941H1.49768C1.58004 145.27 1.66491 145.601 1.74729 145.93H1.9969V146.424L2.49613 146.671V147.166C2.8281 147.414 3.16259 147.661 3.49457 147.908V148.403L3.99379 148.898H4.49302C4.74263 149.227 4.99224 149.559 5.24186 149.888H5.74108L5.99069 150.381H6.73953C8.56169 151.104 11.0503 151.158 13.7286 151.124C14.7696 151.112 15.3087 150.837 15.9752 150.629H17.2232V150.381H17.972V150.134H18.7209L18.9705 149.64H19.4697L19.7193 149.146H20.2186C20.3858 148.898 20.5506 148.651 20.7179 148.403C21.0498 148.322 21.3843 148.237 21.7163 148.156L21.9659 147.661H22.4652C22.6323 147.414 22.7971 147.166 22.9643 146.919H23.4636L23.7131 146.424H24.2124V146.178C24.462 146.096 24.7116 146.012 24.9613 145.93L25.2109 145.435H25.71C25.8773 145.188 26.0421 144.941 26.2093 144.693H26.4588V144.198C26.7086 144.117 26.9581 144.033 27.2077 143.951C27.375 143.703 27.5397 143.456 27.707 143.209C28.0389 143.127 28.3734 143.043 28.7054 142.961V142.714C28.955 142.549 29.2047 142.386 29.4543 142.22V141.973C29.7862 142.054 30.1207 142.139 30.4527 142.22V141.973H30.952C31.0342 141.725 31.1191 141.478 31.2015 141.231C31.4511 141.149 31.7008 141.065 31.9504 140.983C32.1176 140.736 32.2823 140.488 32.4495 140.241H32.9488L33.1984 139.746C33.4481 139.664 33.6977 139.58 33.9472 139.499V139.251C34.4465 139.087 34.9457 138.922 35.4449 138.758L35.6945 138.263C36.1938 138.181 36.6929 138.097 37.1922 138.015L37.4418 137.52H37.9411C38.1906 137.191 38.4402 136.86 38.6899 136.531H39.1891L39.6883 136.036H40.1876V135.788H40.6868L40.9363 135.294H41.6852L41.9349 134.8H42.6837L42.9333 134.305H43.6822V134.058C44.0141 133.976 44.3486 133.892 44.6806 133.81V133.563H45.4294V133.316H46.1783V133.068H46.9272V132.821H47.6759V132.573H48.4247V132.326H48.924L49.1736 131.831H49.6729V131.584C50.5889 131.502 51.5025 131.419 52.4186 131.337C52.5857 131.09 52.7505 130.843 52.9178 130.595H53.417V130.348C54.4154 130.182 55.414 130.019 56.4124 129.853V129.605H57.4108V129.358C57.578 129.44 57.7428 129.524 57.9101 129.605V129.358H58.4092V129.111H59.9069V128.863H62.4031V128.616H65.8976V128.368C66.3145 128.287 66.7289 128.202 67.1456 128.121V128.368H69.1426V128.121H69.3922V128.368C69.6417 128.287 69.8915 128.202 70.141 128.121V128.368H71.1394V128.121H71.389V128.368C72.0854 128.391 73.1114 127.873 74.1349 128.121V128.368C74.6216 128.441 75.333 127.852 76.1317 128.121V128.368H76.631V128.616C76.8806 128.534 77.1301 128.45 77.3798 128.368V128.616C78.795 128.697 80.2079 128.782 81.6232 128.863C81.7804 128.289 81.8503 128.28 82.1224 127.873H82.372V125.895C82.437 125.576 82.1774 122.744 81.8728 121.938C82.1549 121.728 81.9127 121.97 82.1224 121.69C82.6217 121.772 83.1208 121.856 83.6201 121.938V122.185C84.2765 122.156 84.4687 122.089 84.8681 121.938C84.9505 121.443 85.0354 120.948 85.1178 120.453H84.8681V119.712H84.6185V118.723H84.3689V117.733H84.1194V115.755H83.8697V113.034H83.6201V110.56H83.3705V109.076H83.1208V106.108H82.8712V105.366H82.6217C82.5393 104.377 82.4543 103.388 82.372 102.398H82.1224V101.656H81.8728V101.409H82.1224C82.3271 99.8507 81.7654 97.8423 82.6217 96.9567C82.8338 96.6773 82.5892 96.9171 82.8712 96.7094C83.1208 97.6987 83.3705 98.6882 83.6201 99.6775H83.8697C84.037 99.9248 84.2016 100.172 84.3689 100.42C84.8681 100.585 85.3674 100.749 85.8666 100.914V100.667C86.6729 100.57 86.5954 100.442 87.1146 100.172C87.1346 99.2174 87.4691 98.008 87.1146 97.2042C87.0522 97.0632 86.7902 97.1745 86.6154 96.4621C86.8651 96.3804 87.1146 96.2964 87.3642 96.2147C87.514 96.7094 87.3293 96.4275 87.6139 96.7094C87.826 96.989 87.5814 96.749 87.8635 96.9567C88.0182 96.6402 88.1056 96.4299 88.3628 96.2147V95.9674C88.7795 96.049 89.1939 96.1331 89.6108 96.2147C89.4436 95.4727 89.2788 94.7307 89.1115 93.9887ZM80.1255 112.292C79.9083 111.817 79.5514 111.058 79.3767 110.56V109.571H79.1271V108.829H78.8774V108.087H78.6278C78.5454 107.758 78.4606 107.427 78.3783 107.098H78.1286V106.356H77.879C77.7118 105.861 77.547 105.366 77.3798 104.872H77.1301C77.0477 104.543 76.9629 104.211 76.8806 103.882C76.7134 103.801 76.5486 103.717 76.3813 103.635C76.2989 103.306 76.2141 102.975 76.1317 102.646H75.8821C75.7997 102.317 75.7148 101.985 75.6324 101.656H75.3828V100.914H75.1333V100.42H74.8837C74.8013 99.5118 74.7164 98.6065 74.634 97.6987H74.3844V96.9567H74.1349V96.2147H73.8851C73.718 95.307 73.5532 94.4018 73.386 93.4941H73.1364C73.054 93.1651 72.9691 92.8336 72.8867 92.5046H72.6371C72.5548 92.0916 72.47 91.681 72.3876 91.268H72.1379V90.7733H71.8883C71.3916 89.4377 72.39 86.9543 72.6371 86.0739V84.0952H72.8867V81.3744H73.1364C73.6356 83.4347 74.1349 85.4976 74.634 87.5579V89.784H74.8837C75.0509 90.2786 75.2157 90.7733 75.3828 91.268H75.6324V92.9994H75.8821V93.9887H76.1317V96.7094H76.3813C76.4637 97.0384 76.5486 97.3699 76.631 97.6987C76.7982 97.7805 76.9629 97.8645 77.1301 97.9462V98.4408H77.3798V98.9355H77.6294C77.7118 99.4302 77.7966 99.9248 77.879 100.42H78.1286V101.162H78.3783V101.904H78.6278V102.646H78.8774C79.0447 103.553 79.2094 104.459 79.3767 105.366H79.6263C79.7086 106.027 79.7936 106.685 79.876 107.345H80.1255C80.0431 107.592 79.9582 107.84 79.876 108.087H80.1255C80.3751 109.489 80.6247 110.889 80.8744 112.292H80.1255Z" fill="white"/>
</svg>
